<svg xmlns="http://www.w3.org/2000/svg" viewBox="0 0 32 32">
  <defs>
    <linearGradient id="gold" x1="0%" y1="0%" x2="100%" y2="100%">
      <stop offset="0%" style="stop-color:#fde047"/>
      <stop offset="100%" style="stop-color:#d4af37"/>
    </linearGradient>
  </defs>
  <circle cx="16" cy="16" r="15" fill="url(#gold)"/>
  <g fill="#0a1929">
    <rect x="14" y="10" width="4" height="16" rx="1"/>
    <rect x="9" y="10" width="14" height="3" rx="1"/>
    <path d="M9 10 L9 6 Q9 5 10 5 L11 5 L11 10 Z"/>
    <path d="M14 10 L14 4 Q16 2 18 4 L18 10 Z"/>
    <path d="M21 10 L21 6 Q21 5 22 5 L23 5 L23 10 Z"/>
    <path d="M13 24 Q16 28 19 24 L19 26 Q16 30 13 26 Z"/>
  </g>
</svg>
